<svg width="831" height="238" viewBox="0 0 831 238" fill="none" xmlns="http://www.w3.org/2000/svg">
<path d="M341.1 99.2C341.1 102.733 340.267 106.067 338.6 109.2C336.933 112.333 334.267 114.9 330.6 116.9C326.933 118.833 322.233 119.8 316.5 119.8H303.9V148H292.5V78.5H316.5C321.833 78.5 326.333 79.4333 330 81.3C333.733 83.1 336.5 85.5667 338.3 88.7C340.167 91.8333 341.1 95.3333 341.1 99.2ZM316.5 110.5C320.833 110.5 324.067 109.533 326.2 107.6C328.333 105.6 329.4 102.8 329.4 99.2C329.4 91.6 325.1 87.8 316.5 87.8H303.9V110.5H316.5ZM402.473 119.1C402.473 121.167 402.339 123.033 402.073 124.7H359.973C360.306 129.1 361.939 132.633 364.873 135.3C367.806 137.967 371.406 139.3 375.673 139.3C381.806 139.3 386.139 136.733 388.673 131.6H400.973C399.306 136.667 396.273 140.833 391.873 144.1C387.539 147.3 382.139 148.9 375.673 148.9C370.406 148.9 365.673 147.733 361.473 145.4C357.339 143 354.073 139.667 351.673 135.4C349.339 131.067 348.173 126.067 348.173 120.4C348.173 114.733 349.306 109.767 351.573 105.5C353.906 101.167 357.139 97.8333 361.273 95.5C365.473 93.1667 370.273 92 375.673 92C380.873 92 385.506 93.1333 389.573 95.4C393.639 97.6667 396.806 100.867 399.073 105C401.339 109.067 402.473 113.767 402.473 119.1ZM390.573 115.5C390.506 111.3 389.006 107.933 386.073 105.4C383.139 102.867 379.506 101.6 375.173 101.6C371.239 101.6 367.873 102.867 365.073 105.4C362.273 107.867 360.606 111.233 360.073 115.5H390.573ZM426.991 102.2V132.7C426.991 134.767 427.458 136.267 428.391 137.2C429.391 138.067 431.058 138.5 433.391 138.5H440.391V148H431.391C426.258 148 422.325 146.8 419.591 144.4C416.858 142 415.491 138.1 415.491 132.7V102.2H408.991V92.9H415.491V79.2H426.991V92.9H440.391V102.2H426.991ZM473.798 148.7C469.132 148.7 464.932 147.9 461.198 146.3C457.465 144.633 454.532 142.3 452.398 139.3C450.265 136.3 449.198 132.8 449.198 128.8H461.398C461.665 131.8 462.832 134.267 464.898 136.2C467.032 138.133 469.998 139.1 473.798 139.1C477.732 139.1 480.798 138.167 482.998 136.3C485.198 134.367 486.298 131.9 486.298 128.9C486.298 126.567 485.598 124.667 484.198 123.2C482.865 121.733 481.165 120.6 479.098 119.8C477.098 119 474.298 118.133 470.698 117.2C466.165 116 462.465 114.8 459.598 113.6C456.798 112.333 454.398 110.4 452.398 107.8C450.398 105.2 449.398 101.733 449.398 97.4C449.398 93.4 450.398 89.9 452.398 86.9C454.398 83.9 457.198 81.6 460.798 80C464.398 78.4 468.565 77.6 473.298 77.6C480.032 77.6 485.532 79.3 489.798 82.7C494.132 86.0333 496.532 90.6333 496.998 96.5H484.398C484.198 93.9667 482.998 91.8 480.798 90C478.598 88.2 475.698 87.3 472.098 87.3C468.832 87.3 466.165 88.1333 464.098 89.8C462.032 91.4667 460.998 93.8667 460.998 97C460.998 99.1333 461.632 100.9 462.898 102.3C464.232 103.633 465.898 104.7 467.898 105.5C469.898 106.3 472.632 107.167 476.098 108.1C480.698 109.367 484.432 110.633 487.298 111.9C490.232 113.167 492.698 115.133 494.698 117.8C496.765 120.4 497.798 123.9 497.798 128.3C497.798 131.833 496.832 135.167 494.898 138.3C493.032 141.433 490.265 143.967 486.598 145.9C482.998 147.767 478.732 148.7 473.798 148.7ZM522.65 101C524.583 98.4667 527.217 96.3333 530.55 94.6C533.883 92.8667 537.65 92 541.85 92C546.65 92 551.017 93.2 554.95 95.6C558.95 97.9333 562.083 101.233 564.35 105.5C566.617 109.767 567.75 114.667 567.75 120.2C567.75 125.733 566.617 130.7 564.35 135.1C562.083 139.433 558.95 142.833 554.95 145.3C551.017 147.7 546.65 148.9 541.85 148.9C537.65 148.9 533.917 148.067 530.65 146.4C527.383 144.667 524.717 142.533 522.65 140V174.2H511.25V92.9H522.65V101ZM556.15 120.2C556.15 116.4 555.35 113.133 553.75 110.4C552.217 107.6 550.15 105.5 547.55 104.1C545.017 102.633 542.283 101.9 539.35 101.9C536.483 101.9 533.75 102.633 531.15 104.1C528.617 105.567 526.55 107.7 524.95 110.5C523.417 113.3 522.65 116.6 522.65 120.4C522.65 124.2 523.417 127.533 524.95 130.4C526.55 133.2 528.617 135.333 531.15 136.8C533.75 138.267 536.483 139 539.35 139C542.283 139 545.017 138.267 547.55 136.8C550.15 135.267 552.217 133.067 553.75 130.2C555.35 127.333 556.15 124 556.15 120.2ZM607.523 92C611.723 92 615.457 92.9 618.723 94.7C622.057 96.5 624.657 99.1667 626.523 102.7C628.457 106.233 629.423 110.5 629.423 115.5V148H618.123V117.2C618.123 112.267 616.89 108.5 614.423 105.9C611.957 103.233 608.59 101.9 604.323 101.9C600.057 101.9 596.657 103.233 594.123 105.9C591.657 108.5 590.423 112.267 590.423 117.2V148H579.023V74H590.423V99.3C592.357 96.9667 594.79 95.1667 597.723 93.9C600.723 92.6333 603.99 92 607.523 92ZM694.465 119.1C694.465 121.167 694.332 123.033 694.065 124.7H651.965C652.298 129.1 653.932 132.633 656.865 135.3C659.798 137.967 663.398 139.3 667.665 139.3C673.798 139.3 678.132 136.733 680.665 131.6H692.965C691.298 136.667 688.265 140.833 683.865 144.1C679.532 147.3 674.132 148.9 667.665 148.9C662.398 148.9 657.665 147.733 653.465 145.4C649.332 143 646.065 139.667 643.665 135.4C641.332 131.067 640.165 126.067 640.165 120.4C640.165 114.733 641.298 109.767 643.565 105.5C645.898 101.167 649.132 97.8333 653.265 95.5C657.465 93.1667 662.265 92 667.665 92C672.865 92 677.498 93.1333 681.565 95.4C685.632 97.6667 688.798 100.867 691.065 105C693.332 109.067 694.465 113.767 694.465 119.1ZM682.565 115.5C682.498 111.3 680.998 107.933 678.065 105.4C675.132 102.867 671.498 101.6 667.165 101.6C663.232 101.6 659.865 102.867 657.065 105.4C654.265 107.867 652.598 111.233 652.065 115.5H682.565ZM717.084 100.9C718.75 98.1 720.95 95.9333 723.684 94.4C726.484 92.8 729.784 92 733.584 92V103.8H730.684C726.217 103.8 722.817 104.933 720.484 107.2C718.217 109.467 717.084 113.4 717.084 119V148H705.684V92.9H717.084V100.9ZM794.563 119.1C794.563 121.167 794.429 123.033 794.163 124.7H752.063C752.396 129.1 754.029 132.633 756.963 135.3C759.896 137.967 763.496 139.3 767.763 139.3C773.896 139.3 778.229 136.733 780.763 131.6H793.062C791.396 136.667 788.363 140.833 783.963 144.1C779.629 147.3 774.229 148.9 767.763 148.9C762.496 148.9 757.763 147.733 753.563 145.4C749.429 143 746.163 139.667 743.763 135.4C741.429 131.067 740.263 126.067 740.263 120.4C740.263 114.733 741.396 109.767 743.663 105.5C745.996 101.167 749.229 97.8333 753.363 95.5C757.563 93.1667 762.363 92 767.763 92C772.963 92 777.596 93.1333 781.663 95.4C785.729 97.6667 788.896 100.867 791.163 105C793.429 109.067 794.563 113.767 794.563 119.1ZM782.663 115.5C782.596 111.3 781.096 107.933 778.163 105.4C775.229 102.867 771.596 101.6 767.263 101.6C763.329 101.6 759.963 102.867 757.163 105.4C754.363 107.867 752.696 111.233 752.163 115.5H782.663Z" fill="#D6F1F0"/>
<path fill-rule="evenodd" clip-rule="evenodd" d="M142.904 225C-9.87987 221.725 -5.37275 -0.545489 142.904 0.00100609C290.519 0.414489 294.2 221.875 142.904 225ZM246.508 124.001C242.524 175.5 195.204 220.5 135.931 218C130.588 216.411 128.056 215.191 124.973 212C124.235 206.751 122.577 205.358 117.003 206C107.041 193.5 93.5927 200 93.0946 179C99.21 179.765 100.068 161.5 90.106 159C78.1044 157.306 86.1212 154.5 75.1631 155C69.8007 145.292 68.1898 152 68.1898 139C66.3625 132.042 64.462 130.232 60.2202 129.001C49.7221 127.371 39.8762 134.703 39.3002 131.001C37.5113 126.569 37.237 124.182 37.3078 120.001C40.5456 118.698 41.7907 115.001 44.2811 110.001V103.001C46.4193 101.488 47.5363 100.453 49.2621 98.0006H68.1898V85.0007C70.7972 80.6691 71.1783 75.5007 68.1898 73.0008C67.9536 64.8787 68.9635 61.9528 75.1631 63.0008C76.179 59.2287 77.1973 57.3274 79.1479 54.0008L74.1669 32.0009C87.7633 21.5574 94.1399 17.3929 101.064 16.001C103.421 17.2344 103.815 19.4002 104.053 24.001H109.034V26.001C98.7649 29.9494 93.2052 32.161 93.0946 36.0009C91.7619 44.0516 91.891 47.1235 93.0946 51.0008C96.861 54.4826 99.0602 53.4271 103.057 49.0009H107.041C110.081 47.4467 111.511 46.4202 113.018 44.0009C125.406 45.6638 133.189 30.4993 134.935 30.0009C135.34 25.6515 134.843 23.5968 131.946 21.001C138.638 16.055 141.81 12.9282 146.889 7.00104C169.655 8.83871 177.561 12.4803 191.594 18.9441L191.718 19.001L192.714 20.001C181.744 25.7507 180.76 42.0009 194.706 43.0009V45.0009L186.737 53.0008H177.771C174.431 56.2917 172.91 58.4867 170.798 63.0008V68.0008C168.076 68.3905 166.781 68.8381 164.82 70.0008C159.26 62.6105 155.575 59.5311 146.889 58.0008C146.504 59.6625 145.969 60.1951 144.897 61.0008C147.457 68.1583 148.378 71.7036 148.881 77.0007C144.611 86.8376 141.522 91.2721 134.935 97.5006C136.602 101.701 137.47 104.933 138.919 112.001C136.318 119.622 134.7 123.597 131.448 130C132.617 132.619 138.365 136.915 149.379 145L158.345 137L163.326 141L163.824 158L170.798 163.5C167.973 165.916 166.916 167.343 165.817 170V176L162.828 179V185C166.479 190.957 166.824 192.947 166.813 196C171.165 202.953 174.284 201.5 177.771 199C181.64 192.589 184.415 189.078 190.721 183C194.824 175.865 197.587 172.106 203.672 166C205.337 161.987 206.703 160.259 210.645 159C214.301 148.317 216.305 143.165 219.611 139V121.001L217.619 116.001L226.086 124.001C225.274 131.05 224.403 134.84 222.6 141.5L235.55 154C239.712 144.652 239.037 127.501 243.022 121.001C244.828 121.437 245.541 122.178 246.508 124.001ZM40.2964 138C49.7602 181 91.6003 212 118.996 215C119.157 213.108 118.309 212.368 114.015 212C110.249 207.868 107.105 205.81 100.068 202.5C90.6471 197.129 85.6429 193.776 87.1174 175C95.087 173.5 91.1022 163 83.1327 165L78.1517 161C72.6726 163 70.2483 159.084 62.2126 150C62.2126 131 61.0229 136.676 40.2964 138ZM38.304 100.001C40.2964 77.0007 51.2545 54.0008 68.1898 38.0009C70.3652 42.7347 72.1745 48.5009 71.1783 54.0008C71.131 56.4502 70.3474 57.0919 68.1898 57.5008C65.128 58.174 63.8263 59.398 62.2126 63.0008C62.3451 67.3495 61.9268 68.4928 60.2202 68.0008V72.0008C65.2385 79.3444 62.2126 83.0007 62.2126 83.0007V92.0007H46.2735L38.304 100.001ZM236.546 117.001C238.181 110.571 240.423 109.796 247.504 115.001C244.479 70.6685 232.043 46.6806 199.687 25.001C189.725 26.501 184.731 38.0962 208.653 40.0009L189.725 59.0008C179.542 58.7064 176.35 61.2672 177.273 73.0008C170.768 74.4653 167.456 75.63 161.832 78.0007C159.388 73.1579 157.892 71.0415 154.859 69.0008C154.829 72.1039 155.306 74.3335 156.851 79.0007C153.944 80.6449 153.015 82.3325 152.866 87.0007C149.463 91.8871 147.336 94.536 142.904 99.0006C143.114 103.098 143.887 106.332 145.893 113.001C142.192 121.297 140.866 124.826 139.916 129.001L140.151 129.193C144.208 132.514 146.554 134.435 149.878 136C152.936 131.664 154.785 130.148 158.345 129.001C162.373 129.635 165.033 131.567 170.798 139V155C174.697 157.636 176.238 159.194 178.767 162V166L171.794 172C172.573 172.357 171.48 179.797 169.801 183C172.276 188.831 173.438 191.116 174.782 192C176.277 186.5 183.025 182.319 185.741 177C187.749 174.682 189.452 172.614 197.695 162C200.431 157.088 202.099 154.972 205.664 154C205.664 154 209.417 141.554 212.638 138L212.366 120.001H212.638C209.963 116.474 208.757 114.187 207.657 109.001H221.603C222.032 110.634 225.899 114.339 231.565 120.001C233.531 120.789 233.725 121.823 233.558 124.001C231.93 132.111 231.007 136.912 229.573 140L232.562 141C232.941 131.186 233.668 125.876 236.546 117.001ZM136.927 7.00104C126.869 7.61 120.35 8.91794 108.037 12.001C108.756 16.7142 110.312 17.6653 114.015 18.001C116.617 21.4133 116.017 24.3342 114.015 30.0009C108.693 33.2907 105.434 35.0464 99.0717 38.0009V44.0009C101.877 42.3178 103.407 41.8481 106.045 42.0009C108.154 39.4536 109.246 38.3542 111.026 37.0009C117.196 36.8835 120.421 36.5917 122.98 33.0009C127.561 28.6675 129.418 26.4089 125.969 24.001C124.413 22.5128 123.997 20.9494 123.977 17.001C131.094 12.9844 134.193 10.78 136.927 7.00104Z" fill="url(#paint0_linear_24_11)"/>
<path d="M247.504 115.001C240.423 109.796 238.181 110.571 236.546 117.001C233.668 125.876 232.941 131.186 232.562 141L229.573 140C231.007 136.912 231.93 132.111 233.558 124.001C233.725 121.823 233.531 120.789 231.565 120.001C225.899 114.339 222.032 110.634 221.603 109.001H207.657C208.757 114.187 209.963 116.474 212.638 120.001H212.366L212.638 138C209.417 141.554 205.664 154 205.664 154C202.099 154.972 200.431 157.088 197.695 162C189.452 172.614 187.749 174.682 185.741 177C183.025 182.319 176.277 186.5 174.782 192C173.438 191.116 172.276 188.831 169.801 183C171.48 179.797 172.573 172.357 171.794 172L178.767 166V162C176.238 159.194 174.697 157.636 170.798 155V139C165.033 131.567 162.373 129.635 158.345 129.001C154.785 130.148 152.936 131.664 149.878 136C146.554 134.435 144.208 132.514 140.151 129.193L139.916 129.001C140.866 124.826 142.192 121.297 145.893 113.001C143.887 106.332 143.114 103.098 142.904 99.0006C147.336 94.536 149.463 91.8871 152.866 87.0007C153.015 82.3325 153.944 80.6449 156.851 79.0007C155.306 74.3335 154.829 72.1039 154.859 69.0008C157.892 71.0415 159.388 73.1579 161.832 78.0007C167.456 75.63 170.768 74.4653 177.273 73.0008C176.35 61.2672 179.542 58.7064 189.725 59.0008L208.653 40.0009C184.731 38.0962 189.725 26.501 199.687 25.001C232.043 46.6806 244.479 70.6685 247.504 115.001Z" fill="url(#paint1_linear_24_11)"/>
<path d="M108.037 12.001C120.35 8.91794 126.869 7.61 136.927 7.00104C134.193 10.78 131.094 12.9844 123.977 17.001C123.997 20.9494 124.413 22.5128 125.969 24.001C129.418 26.4089 127.561 28.6675 122.98 33.0009C120.421 36.5917 117.196 36.8835 111.026 37.0009C109.246 38.3542 108.154 39.4536 106.045 42.0009C103.407 41.8481 101.877 42.3178 99.0717 44.0009V38.0009C105.434 35.0464 108.693 33.2907 114.015 30.0009C116.017 24.3342 116.617 21.4133 114.015 18.001C110.312 17.6653 108.756 16.7142 108.037 12.001Z" fill="url(#paint2_linear_24_11)"/>
<path d="M68.1898 38.0009C51.2545 54.0008 40.2964 77.0007 38.304 100.001L46.2735 92.0007H62.2126V83.0007C62.2126 83.0007 65.2385 79.3444 60.2202 72.0008V68.0008C61.9268 68.4928 62.3451 67.3495 62.2126 63.0008C63.8263 59.398 65.128 58.174 68.1898 57.5008C70.3474 57.0919 71.131 56.4502 71.1783 54.0008C72.1745 48.5009 70.3652 42.7347 68.1898 38.0009Z" fill="url(#paint3_linear_24_11)"/>
<path d="M118.996 215C91.6003 212 49.7602 181 40.2964 138C61.0229 136.676 62.2126 131 62.2126 150C70.2483 159.084 72.6726 163 78.1517 161L83.1327 165C91.1022 163 95.087 173.5 87.1174 175C85.6429 193.776 90.6471 197.129 100.068 202.5C107.105 205.81 110.249 207.868 114.015 212C118.309 212.368 119.157 213.108 118.996 215Z" fill="url(#paint4_linear_24_11)"/>
<path d="M46.3897 232.393C27.2439 232.675 15.1618 204.792 28.3669 188.306C35.3276 180.157 40.3322 175.949 48.895 165.994C49.903 165.878 58.955 151.63 62.7104 145.878C70.6675 135.02 90.6653 133.569 99.1038 142.389L110.413 154.195C122.669 165.162 136.065 173.67 141.643 178.535C158.44 190.436 155.52 227.989 122.664 226.48C117.076 226.507 113.701 226.318 107.099 225.487C91.4758 223.566 82.1157 225.004 65.9172 229.434C57.06 231.572 52.2027 232.18 46.3897 232.393Z" fill="#D6F1F0"/>
<path d="M135.375 113.769C108.746 120.26 119.892 163.072 141.614 161.367C163.902 159.751 163.093 114.401 135.375 113.769Z" fill="#D6F1F0"/>
<path d="M99.8572 120.56C127.247 122.065 130.135 77.4674 108.923 72.7734C87.201 67.8278 73.6756 111.859 99.8572 120.56Z" fill="#D6F1F0"/>
<path d="M59.8432 122.209C86.1381 117.188 77.6825 73.6532 56.4339 74.1513C34.6388 74.5283 32.8865 120.031 59.8432 122.209Z" fill="#D6F1F0"/>
<path d="M27.8746 161.952C54.432 155.383 43.1947 111.925 21.5213 113.64C-0.717461 115.265 0.211167 161.292 27.8746 161.952Z" fill="#D6F1F0"/>
<defs>
<linearGradient id="paint0_linear_24_11" x1="217.422" y1="45.5008" x2="79.9217" y2="182.976" gradientUnits="userSpaceOnUse">
<stop stop-color="#5AB4EE"/>
<stop offset="1" stop-color="#276794" stop-opacity="0"/>
</linearGradient>
<linearGradient id="paint1_linear_24_11" x1="217.422" y1="45.5008" x2="79.9217" y2="182.976" gradientUnits="userSpaceOnUse">
<stop stop-color="#5AB4EE"/>
<stop offset="1" stop-color="#276794" stop-opacity="0"/>
</linearGradient>
<linearGradient id="paint2_linear_24_11" x1="217.422" y1="45.5008" x2="79.9217" y2="182.976" gradientUnits="userSpaceOnUse">
<stop stop-color="#5AB4EE"/>
<stop offset="1" stop-color="#276794" stop-opacity="0"/>
</linearGradient>
<linearGradient id="paint3_linear_24_11" x1="217.422" y1="45.5008" x2="79.9217" y2="182.976" gradientUnits="userSpaceOnUse">
<stop stop-color="#5AB4EE"/>
<stop offset="1" stop-color="#276794" stop-opacity="0"/>
</linearGradient>
<linearGradient id="paint4_linear_24_11" x1="217.422" y1="45.5008" x2="79.9217" y2="182.976" gradientUnits="userSpaceOnUse">
<stop stop-color="#5AB4EE"/>
<stop offset="1" stop-color="#276794" stop-opacity="0"/>
</linearGradient>
</defs>
</svg>
