<svg width="38" height="32" viewBox="0 0 38 32" fill="none" xmlns="http://www.w3.org/2000/svg">
<path d="M6.33331 27.378C8.94869 22.8776 10.9039 21.1227 15.6222 19.9114H22.3778C25.712 19.6272 31.6934 24.9301 30.8222 27.378" stroke="#1F3B4D"/>
<path d="M37.5 16C37.5 24.4833 29.3012 31.5 19 31.5C8.69877 31.5 0.5 24.4833 0.5 16C0.5 7.51666 8.69877 0.5 19 0.5C29.3012 0.5 37.5 7.51666 37.5 16Z" stroke="#1F3B4D"/>
<path d="M25.6778 13.8667C25.6778 16.8517 22.772 19.4112 19 19.4112C15.228 19.4112 12.3222 16.8517 12.3222 13.8667C12.3222 10.8817 15.228 8.32227 19 8.32227C22.772 8.32227 25.6778 10.8817 25.6778 13.8667Z" stroke="#1F3B4D"/>
</svg>
